<?xml version="1.0" encoding="UTF-8" standalone="no"?>
<?xml-stylesheet type="text/css" href="/css/icons.css" ?>
<svg viewBox="0 0 200 250" version="1.1" xml:space="preserve" xmlns="http://www.w3.org/2000/svg"
     xmlns:svg="http://www.w3.org/2000/svg">
    <path class="icon-block icon-block-text" d="M 100.60352,12.998047 C 67.008186,12.657255 33.378707,29.1207 14.080078,62.634766 4.0397381,80.071618 -0.70591914,100.11906 0.08398437,121.04492 c 0.63961962,16.93322 6.19619123,34.03656 14.54687463,47.83399 3.214337,5.3117 6.866497,10.13543 10.816407,14.71679 1.458073,1.69116 4.132879,3.80866 4.128906,6.43946 -0.01903,11.71301 -11.109243,23.70684 -18.007813,30.61914 -3.7278568,3.73507 -9.7816441,7.70598 -9.912109,13.99414 3.4641551,0.5933 6.7567995,2.10049 10.308594,2.28125 14.440721,0.7345 28.937872,-3.92877 42.429687,-9.49805 5.628847,-2.32357 11.174532,-4.9385 16.654297,-7.69531 2.501353,-1.25837 5.596773,-3.7984 8.328125,-4.0293 3.038664,-0.25756 6.472564,1.04716 9.517578,1.38477 5.650666,0.62642 11.369189,0.69268 17.050779,0.53125 14.10247,-0.40059 28.0118,-5.19273 40.84375,-11.68555 40.30531,-20.39556 64.53912,-75.23242 47.90039,-123.986328 -3.5958,-10.536519 -8.68397,-20.416239 -15.10351,-28.97461 C 159.86233,26.68291 130.24645,13.298745 100.60352,12.998047 Z M 79.878906,77.285156 c 0.767151,0.0011 1.483956,0.21562 2.117188,0.900391 -6.031941,3.416627 -10.858001,8.780398 -12.685547,15.130859 -0.371594,1.291109 -0.727413,2.56688 -0.962891,3.886719 -0.07244,0.40604 -0.310233,1.08243 -0.08398,1.46875 0.361302,0.617159 2.020649,0.81154 2.693359,1.037109 2.462745,0.826076 4.809975,1.790266 7.107422,2.951176 6.333213,3.19979 11.193802,8.71783 12.791016,15.22461 2.391517,9.74238 -0.333216,20.52757 -8.267578,27.60156 -13.050717,11.63557 -35.503349,9.92684 -45.115235,-4.69727 -2.594776,-3.94786 -3.911258,-8.22419 -4.519531,-12.76953 -0.746507,-5.57921 -0.02098,-11.46502 1.908203,-16.79687 4.921865,-13.602402 17.687385,-25.64674 32.314453,-30.685551 3.378035,-1.163682 6.747275,-2.188863 10.283203,-2.878906 0.835285,-0.163035 1.652772,-0.374105 2.419922,-0.373047 z m 75.791014,0.109375 c 0.68849,0.08046 1.34579,0.281466 1.94531,0.652344 -2.04388,1.796667 -4.52426,3.058107 -6.49023,4.996094 -4.61592,4.550041 -6.22633,9.907554 -7.42383,15.824219 4.55346,0.966849 9.05526,3.062622 12.85547,5.515622 14.36749,9.27388 13.72068,29.98091 1.92188,40.81055 -7.28896,6.69028 -17.41351,9.27158 -27.48047,7.42383 -3.91387,-0.71838 -7.55519,-2.24304 -10.73828,-4.45508 -2.57587,-1.79006 -4.81515,-4.07667 -6.60352,-6.53906 -13.12272,-18.06888 -1.26493,-42.150491 15.67773,-54.015628 6.00503,-4.205373 12.71591,-7.193724 19.9629,-9.105469 1.95596,-0.515976 4.30759,-1.348798 6.37304,-1.107422 z"/>
</svg>