<?xml version="1.0" encoding="UTF-8" standalone="no"?>
<?xml-stylesheet type="text/css" href="/css/icons.css" ?>
<svg viewBox="0 0 200 250" version="1.1" xmlns="http://www.w3.org/2000/svg" xmlns:svg="http://www.w3.org/2000/svg">
    <path class="icon-block icon-block-note" d="M 25.215026,0 C 11.065989,0 0,12.475619 0,27.060484 V 222.94473 C 0,237.5296 11.065963,250 25.215026,250 H 174.78497 C 188.93404,250 200,237.5296 200,222.94473 V 27.060484 C 200,12.475619 188.93404,0 174.78497,0 Z m 0,14.154394 H 174.78497 c 6.05912,0 11.26334,5.35172 11.26334,12.90609 V 222.94473 c 0,7.55437 -5.20425,12.90609 -11.26334,12.90609 H 25.215026 c -6.059089,0 -11.258165,-5.35172 -11.258165,-12.90609 V 27.060484 c 0,-7.554372 5.19905,-12.90609 11.258165,-12.90609 z M 71.284603,201.30397 A 15.36145,18.922347 0 0 1 55.923164,220.22632 15.36145,18.922347 0 0 1 40.561699,201.30397 15.36145,18.922347 0 0 1 55.923164,182.38164 15.36145,18.922347 0 0 1 71.284603,201.30397 Z M 81.597239,79.306084 C 67.143646,128.76077 69.909768,175.61271 55.492538,175.61271 c -14.417232,0 -13.261732,-46.29032 -26.104703,-96.306626 -9.583519,-37.322528 13.936214,-49.53241 28.353446,-49.53241 14.417231,0 34.763817,12.209882 23.855958,49.53241 z M 102.32103,203.23557 a 6.9766991,7.0754549 0 0 0 -6.973262,7.07197 6.9766991,7.0754549 0 0 0 6.973262,7.07718 h 71.13865 a 6.9766991,7.0754549 0 0 0 6.97327,-7.07718 6.9766991,7.0754549 0 0 0 -6.97327,-7.07197 z m 0,-25.84741 a 6.9766991,7.0754549 0 0 0 -6.973262,7.07196 6.9766991,7.0754549 0 0 0 6.973262,7.07719 h 71.13865 a 6.9766991,7.0754549 0 0 0 6.97327,-7.07719 6.9766991,7.0754549 0 0 0 -6.97327,-7.07196 z m 0,-25.84742 a 6.9766991,7.0754549 0 0 0 -6.973262,7.07197 6.9766991,7.0754549 0 0 0 6.973262,7.07718 h 71.13865 a 6.9766991,7.0754549 0 0 0 6.97327,-7.07718 6.9766991,7.0754549 0 0 0 -6.97327,-7.07197 z m 0,-25.84742 a 6.9766991,7.0754549 0 0 0 -6.973262,7.07197 6.9766991,7.0754549 0 0 0 6.973262,7.07719 h 71.13865 a 6.9766991,7.0754549 0 0 0 6.97327,-7.07719 6.9766991,7.0754549 0 0 0 -6.97327,-7.07197 z m 0,-25.847437 a 6.9766991,7.0754549 0 0 0 -6.973262,7.071977 6.9766991,7.0754549 0 0 0 6.973262,7.07719 h 71.13865 a 6.9766991,7.0754549 0 0 0 6.97327,-7.07719 6.9766991,7.0754549 0 0 0 -6.97327,-7.071977 z"/>
</svg>