<?xml version="1.0" encoding="UTF-8" standalone="no"?>
<?xml-stylesheet type="text/css" href="/css/icons.css" ?>
<svg viewBox="0 0 200 250" version="1.1" xmlns="http://www.w3.org/2000/svg" xmlns:svg="http://www.w3.org/2000/svg">
    <path class="icon-block icon-block-text" d="m 28.820108,203.23827 a 6.9767084,7.0754595 0 0 0 -6.973273,7.07197 6.9767084,7.0754595 0 0 0 6.973273,7.07722 H 171.17989 a 6.9767084,7.0754595 0 0 0 6.97327,-7.07722 6.9767084,7.0754595 0 0 0 -6.97327,-7.07197 z m 0,-25.84872 a 6.9767084,7.0754595 0 0 0 -6.973273,7.07197 6.9767084,7.0754595 0 0 0 6.973273,7.07718 H 171.17989 a 6.9767084,7.0754595 0 0 0 6.97327,-7.07718 6.9767084,7.0754595 0 0 0 -6.97327,-7.07197 z m 0,-25.84875 a 6.9767084,7.0754595 0 0 0 -6.973273,7.07719 6.9767084,7.0754595 0 0 0 6.973273,7.07199 H 171.17989 a 6.9767084,7.0754595 0 0 0 6.97327,-7.07199 6.9767084,7.0754595 0 0 0 -6.97327,-7.07719 z m 0,-25.84874 a 6.9767084,7.0754595 0 0 0 -6.973273,7.07718 6.9767084,7.0754595 0 0 0 6.973273,7.07198 H 171.17989 a 6.9767084,7.0754595 0 0 0 6.97327,-7.07198 6.9767084,7.0754595 0 0 0 -6.97327,-7.07718 z m 0,-25.848748 a 6.9767084,7.0754595 0 0 0 -6.973273,7.077188 6.9767084,7.0754595 0 0 0 6.973273,7.07721 H 171.17989 a 6.9767084,7.0754595 0 0 0 6.97327,-7.07721 6.9767084,7.0754595 0 0 0 -6.97327,-7.077188 z m 6.661266,-75.947387 h 67.623296 c 7.55429,0 13.6359,6.167692 13.6359,13.828907 v 37.474875 c 0,7.661212 -6.08161,13.828906 -13.6359,13.828906 H 35.481374 c -7.554291,0 -13.635902,-6.167694 -13.635902,-13.828906 V 37.724832 c 0,-7.661215 6.081611,-13.828907 13.635902,-13.828907 z M 25.215018,0 C 11.065966,0 0,12.475618 0,27.060484 V 222.94474 C 0,237.5296 11.065953,250 25.215018,250 H 174.78498 C 188.93405,250 200,237.5296 200,222.94474 V 27.060484 C 200,12.475618 188.93403,0 174.78498,0 Z m 0,14.154393 H 174.78498 c 6.05911,0 11.26333,5.351721 11.26333,12.906091 V 222.94474 c 0,7.55436 -5.20423,12.90608 -11.26333,12.90608 H 25.215018 c -6.059096,0 -11.258175,-5.35172 -11.258175,-12.90608 V 27.060484 c 0,-7.554372 5.199066,-12.906091 11.258175,-12.906091 z"/>
</svg>