<svg xmlns="http://www.w3.org/2000/svg" fill-rule="evenodd" stroke-linejoin="round" stroke-miterlimit="2" clip-rule="evenodd" viewBox="0 0 50 29">
  <path fill="#ed1c24" fill-rule="nonzero" d="M49.51 11.661l-15.105-.044-.462-3.984-3.561 3.761-.801-4.37-2.174 4.31-10.99.015-1.372-.55-1.279.595-1.51-.669-1.002.728-6.89-.03L2.653.485.526 10.948l.308 17.54 4.44.029.122-2.17-.462-.416.108-4.31 1.325.014 1.835 6.822 3.637.03-.215-2.497-.679-.342-.046-4.28 2.266 1.1.632-1.1 9.818-.075-.878 7.21 4.023-.03v-2.438l-.555-.402.616-4.236h2.328l1.202 7.105h3.992l-.323-2.839-.74-.312.046-4.192 15.275-.4.077-2.989-13.934-.594-.077-1.263 14.813-.996.03-3.256z"/>
  <path fill-rule="nonzero" d="M35.654 14.114a.58.58 0 01-.586-.565.58.58 0 01.586-.565.58.58 0 01.585.565.58.58 0 01-.585.565M33.958 14.04a.58.58 0 01-.586-.565.58.58 0 01.586-.565.58.58 0 01.586.565.58.58 0 01-.586.565"/>
  <path fill-rule="nonzero" d="M5.273 29.022H.834a.517.517 0 01-.509-.49l-.323-17.54a.586.586 0 010-.103L2.129.484V.468c0-.27.23-.49.508-.49h.031a.52.52 0 01.493.432l1.65 10.523h6.273l.832-.55a.539.539 0 01.524 0l1.295.565 1.095-.565a.544.544 0 01.431 0l1.264.52h10.558l2.035-4.028a.527.527 0 01.46-.261.52.52 0 01.511.395l.617 3.374 2.851-2.973a.532.532 0 01.375-.153c.26 0 .482.188.52.436l.4 3.537H49.51a.516.516 0 01.51.506v3.255a.515.515 0 01-.479.49l-14.334.848v.327l13.471.58c.276.016.493.239.493.505l-.077 2.972c0 .27-.23.491-.508.491l-14.782.401v3.374l.431.179c.172.07.29.223.309.401l.308 2.839c.002.015.002.03.002.045a.517.517 0 01-.51.505h-3.931a.52.52 0 01-.509-.416l-1.125-6.689H27.33l-.524 3.523.308.223c.13.095.204.244.2.401v2.438a.516.516 0 01-.508.505h-4.023a.562.562 0 01-.385-.163.478.478 0 01-.124-.387l.817-6.659h-8.94l-.477.847a.535.535 0 01-.679.209l-1.541-.729v3.166l.416.208c.151.084.25.234.262.402l.2 2.482a.495.495 0 01-.138.371.579.579 0 01-.385.164H8.202a.522.522 0 01-.494-.372l-1.741-6.346h-.432l-.092 3.597.293.267c.112.1.174.24.17.387l-.155 2.17a.516.516 0 01-.478.475zm-3.93-1.025H4.78l.077-1.487-.293-.267a.496.496 0 01-.17-.372l.108-4.31a.517.517 0 01.51-.49h1.34a.522.522 0 01.493.37l1.727 6.452h2.682l-.14-1.68-.43-.223a.503.503 0 01-.278-.43v-4.267a.517.517 0 01.524-.498.54.54 0 01.231.052l1.819.877.385-.684a.512.512 0 01.447-.252h9.803c.147 0 .287.06.386.163a.49.49 0 01.123.387l-.817 6.659h2.913v-1.71l-.354-.252a.498.498 0 01-.2-.461l.616-4.236a.52.52 0 01.509-.431h2.327a.52.52 0 01.509.416l1.125 6.689h2.975l-.231-2.007-.478-.193a.505.505 0 01-.309-.461v-4.192a.517.517 0 01.51-.49l14.78-.401v-2.022l-13.44-.58a.516.516 0 01-.493-.475l-.077-1.264a.515.515 0 01.478-.52l14.442-.966v-2.289H34.313a.52.52 0 01-.51-.446l-.307-2.928-2.79 2.973a.534.534 0 01-.894-.253l-.524-2.869-1.542 2.973a.523.523 0 01-.416.268H16.217l-1.218-.52-1.002.52a.52.52 0 01-.431 0l-1.249-.55-.755.55a.532.532 0 01-.308.104l-6.89-.104a.504.504 0 01-.509-.431L2.591 3.397l-1.541 7.61.293 16.99z"/>
</svg>
